<svg width="186" height="67" viewBox="0 0 186 67" fill="none" xmlns="http://www.w3.org/2000/svg">
<path fill-rule="evenodd" clip-rule="evenodd" d="M59.8108 27.3456C59.2361 28.0938 58.5555 28.6872 57.769 29.126C56.8766 29.6238 55.8354 29.8727 54.6455 29.8727C53.3937 29.8727 52.2782 29.6176 51.299 29.1073C50.3323 28.597 49.5142 27.8814 48.8449 26.9604C48.188 26.0393 47.686 24.9565 47.339 23.7119C46.9919 22.4673 46.8184 21.1107 46.8184 19.642V19.25C46.8184 17.7067 46.9919 16.3065 47.339 15.0494C47.686 13.7799 48.1942 12.6909 48.8635 11.7823C49.5328 10.8738 50.357 10.1706 51.3362 9.67272C52.3154 9.17488 53.4309 8.92596 54.6827 8.92596C55.8602 8.92596 56.889 9.17488 57.769 9.67272C58.4332 10.0433 59.022 10.5311 59.5352 11.1362V0.823547H64.9268V29.4994H60.0743L59.8108 27.3456ZM59.5352 15.3256C59.403 15.0473 59.2481 14.7934 59.0704 14.564C58.7357 14.116 58.3143 13.7675 57.8061 13.5186C57.3104 13.2696 56.7216 13.1452 56.0399 13.1452C55.3458 13.1452 54.7509 13.307 54.2551 13.6306C53.7593 13.9417 53.3565 14.3711 53.0467 14.9188C52.7492 15.4664 52.5261 16.1136 52.3773 16.8603C52.241 17.5947 52.1728 18.3912 52.1728 19.25V19.642C52.1728 20.4759 52.2348 21.2538 52.3588 21.9757C52.4951 22.6976 52.712 23.3385 53.0095 23.8986C53.3193 24.4462 53.716 24.8756 54.1993 25.1868C54.6951 25.4855 55.2963 25.6348 56.0027 25.6348C56.9199 25.6348 57.676 25.4295 58.2709 25.0188C58.8089 24.6361 59.2303 24.1263 59.5352 23.4893V15.3256ZM17.2761 20.4822H22.835C22.7235 22.3117 22.2215 23.936 21.3291 25.3548C20.4491 26.7737 19.2158 27.8814 17.6293 28.6779C16.0552 29.4745 14.1589 29.8727 11.9403 29.8727C10.205 29.8727 8.64951 29.574 7.27372 28.9766C5.89793 28.3668 4.72045 27.4955 3.74128 26.3629C2.77451 25.2303 2.03704 23.8613 1.52886 22.2557C1.02069 20.6502 0.766602 18.8517 0.766602 16.8603V14.9748C0.766602 12.9834 1.02689 11.1849 1.54746 9.57938C2.08042 7.96139 2.83649 6.58609 3.81565 5.4535C4.80721 4.3209 5.99089 3.44967 7.36668 2.83982C8.74247 2.22996 10.2794 1.92503 11.9774 1.92503C14.2332 1.92503 16.1358 2.33575 17.6851 3.15719C19.2468 3.97863 20.4553 5.11123 21.3105 6.55498C22.1781 7.99872 22.6987 9.64161 22.8722 11.4836H17.2947C17.2327 10.3884 17.0158 9.46114 16.644 8.70193C16.2721 7.93027 15.7082 7.35153 14.9521 6.9657C14.2085 6.56742 13.2169 6.36828 11.9774 6.36828C11.0478 6.36828 10.236 6.54253 9.54192 6.89102C8.84782 7.23951 8.26528 7.76847 7.79429 8.4779C7.3233 9.18733 6.97005 10.0834 6.73456 11.1663C6.51146 12.2366 6.39991 13.4937 6.39991 14.9374V16.8603C6.39991 18.2668 6.50526 19.5051 6.71597 20.5755C6.92667 21.6334 7.24893 22.5295 7.68274 23.2639C8.12894 23.9857 8.69909 24.5334 9.39318 24.9067C10.0997 25.2677 10.9487 25.4482 11.9403 25.4482C13.1053 25.4482 14.0659 25.2615 14.822 24.8881C15.578 24.5147 16.1544 23.9608 16.551 23.2265C16.96 22.4922 17.2017 21.5774 17.2761 20.4822ZM25.3077 19.6047V19.2127C25.3077 17.7316 25.5184 16.3687 25.9399 15.1241C26.3613 13.8671 26.9748 12.778 27.7804 11.857C28.5861 10.936 29.5776 10.2204 30.7551 9.71006C31.9326 9.18733 33.2836 8.92596 34.8081 8.92596C36.3327 8.92596 37.6899 9.18733 38.8797 9.71006C40.0696 10.2204 41.0674 10.936 41.873 11.857C42.691 12.778 43.3108 13.8671 43.7322 15.1241C44.1536 16.3687 44.3643 17.7316 44.3643 19.2127V19.6047C44.3643 21.0734 44.1536 22.4362 43.7322 23.6933C43.3108 24.9379 42.691 26.0269 41.873 26.9604C41.0674 27.8814 40.0758 28.597 38.8983 29.1073C37.7208 29.6176 36.3698 29.8727 34.8453 29.8727C33.3208 29.8727 31.9636 29.6176 30.7737 29.1073C29.5962 28.597 28.5985 27.8814 27.7804 26.9604C26.9748 26.0269 26.3613 24.9379 25.9399 23.6933C25.5184 22.4362 25.3077 21.0734 25.3077 19.6047ZM30.6622 19.2127V19.6047C30.6622 20.451 30.7365 21.2414 30.8853 21.9757C31.034 22.71 31.2695 23.3572 31.5918 23.9173C31.9264 24.4649 32.3602 24.8943 32.8932 25.2055C33.4261 25.5166 34.0769 25.6722 34.8453 25.6722C35.589 25.6722 36.2273 25.5166 36.7603 25.2055C37.2932 24.8943 37.7208 24.4649 38.0431 23.9173C38.3654 23.3572 38.6008 22.71 38.7496 21.9757C38.9107 21.2414 38.9913 20.451 38.9913 19.6047V19.2127C38.9913 18.3912 38.9107 17.6196 38.7496 16.8977C38.6008 16.1634 38.3592 15.5162 38.0245 14.9561C37.7022 14.3836 37.2746 13.9355 36.7417 13.6119C36.2087 13.2883 35.5642 13.1265 34.8081 13.1265C34.0521 13.1265 33.4076 13.2883 32.8746 13.6119C32.354 13.9355 31.9264 14.3836 31.5918 14.9561C31.2695 15.5162 31.034 16.1634 30.8853 16.8977C30.7365 17.6196 30.6622 18.3912 30.6622 19.2127ZM78.3686 29.8727C76.8069 29.8727 75.4064 29.6238 74.1669 29.126C72.9275 28.6157 71.8739 27.9125 71.0063 27.0164C70.1511 26.1202 69.4942 25.081 69.0356 23.8986C68.577 22.7038 68.3477 21.4343 68.3477 20.0901V19.3433C68.3477 17.8125 68.5646 16.4123 68.9984 15.1428C69.4322 13.8733 70.0519 12.7718 70.8576 11.8383C71.6756 10.9049 72.6672 10.1892 73.8323 9.69139C74.9973 9.1811 76.3111 8.92596 77.7737 8.92596C79.1991 8.92596 80.4633 9.16243 81.5664 9.63539C82.6695 10.1083 83.5929 10.7804 84.3366 11.6517C85.0927 12.5229 85.6628 13.5684 86.047 14.7881C86.4313 15.9953 86.6234 17.3395 86.6234 18.8206V21.0609H73.7778C73.8319 21.5055 73.9244 21.9287 74.0554 22.3304C74.2908 23.0149 74.6193 23.6061 75.0407 24.104C75.4745 24.6018 75.9951 24.9876 76.6024 25.2615C77.2222 25.5353 77.9224 25.6722 78.7033 25.6722C79.6701 25.6722 80.5687 25.4855 81.3991 25.1121C82.2419 24.7263 82.967 24.1475 83.5743 23.3759L86.1772 26.2136C85.7558 26.8234 85.1794 27.4084 84.4482 27.9685C83.7293 28.5286 82.8616 28.9891 81.8453 29.35C80.8289 29.6985 79.6701 29.8727 78.3686 29.8727ZM73.9438 16.879C73.9051 17.0731 73.8715 17.2722 73.8429 17.4764H81.3619V17.0657C81.3619 16.3189 81.2256 15.6531 80.9529 15.0681C80.6926 14.4707 80.296 13.9977 79.763 13.6493C79.2301 13.3008 78.5484 13.1265 77.7179 13.1265C77.0114 13.1265 76.4041 13.2821 75.8959 13.5932C75.3878 13.9044 74.9725 14.34 74.6503 14.9001C74.3404 15.4602 74.1049 16.1198 73.9438 16.879ZM95.0269 15.1721V29.4994H89.6538V9.29934H94.6922L94.8773 11.6122C95.5331 10.7745 96.3329 10.1218 97.2765 9.65405C98.2556 9.16866 99.3897 8.92596 100.679 8.92596C101.571 8.92596 102.389 9.06287 103.133 9.33668C103.877 9.59805 104.515 10.015 105.048 10.5875C105.434 10.984 105.758 11.4677 106.02 12.0388C106.108 11.9068 106.199 11.7777 106.293 11.6517C106.95 10.7929 107.762 10.127 108.729 9.65405C109.696 9.16866 110.811 8.92596 112.076 8.92596C113.042 8.92596 113.922 9.06909 114.716 9.35535C115.509 9.62916 116.184 10.071 116.742 10.6809C117.312 11.2783 117.746 12.0624 118.043 13.0332C118.353 14.004 118.508 15.1926 118.508 16.599V29.4994H113.135V16.599C113.135 15.6655 113.011 14.9561 112.763 14.4707C112.528 13.9729 112.181 13.6306 111.722 13.4439C111.276 13.2448 110.743 13.1452 110.123 13.1452C109.479 13.1452 108.915 13.2759 108.432 13.5372C107.948 13.7862 107.545 14.1347 107.223 14.5827C107.038 14.8405 106.879 15.123 106.747 15.4303C106.754 15.6223 106.758 15.819 106.758 16.0202V29.4994H101.404V16.6176C101.404 15.6966 101.28 14.9872 101.032 14.4894C100.784 13.9915 100.431 13.643 99.9723 13.4439C99.5261 13.2448 98.9869 13.1452 98.3548 13.1452C97.6607 13.1452 97.0534 13.2883 96.5328 13.5746C96.0246 13.8608 95.6032 14.2591 95.2686 14.7694C95.1822 14.8978 95.1017 15.0321 95.0269 15.1721ZM128.009 37.2657V27.745C128.511 28.3081 129.088 28.7684 129.738 29.126C130.643 29.6238 131.708 29.8727 132.935 29.8727C134.2 29.8727 135.315 29.6176 136.282 29.1073C137.261 28.5846 138.079 27.8627 138.736 26.9417C139.393 26.0082 139.889 24.913 140.223 23.6559C140.57 22.3989 140.744 21.036 140.744 19.5674V19.1753C140.744 17.6444 140.57 16.2505 140.223 14.9934C139.889 13.7364 139.387 12.6536 138.718 11.745C138.061 10.8364 137.243 10.1395 136.263 9.65405C135.297 9.16866 134.175 8.92596 132.898 8.92596C131.684 8.92596 130.624 9.17488 129.719 9.67272C128.996 10.0762 128.362 10.6145 127.818 11.2877L127.618 9.29934H122.654V37.2657H128.009ZM129.217 25.0374C128.695 24.666 128.292 24.1796 128.009 23.578V15.1937C128.122 14.9532 128.252 14.7309 128.399 14.5267C128.721 14.0786 129.137 13.7364 129.645 13.4999C130.165 13.2634 130.791 13.1452 131.523 13.1452C132.217 13.1452 132.805 13.3008 133.289 13.6119C133.785 13.9106 134.181 14.3338 134.479 14.8814C134.788 15.429 135.012 16.07 135.148 16.8043C135.297 17.5262 135.371 18.3165 135.371 19.1753V19.5674C135.371 20.4137 135.303 21.204 135.166 21.9384C135.043 22.6727 134.826 23.3199 134.516 23.8799C134.218 24.44 133.828 24.8819 133.344 25.2055C132.861 25.5166 132.266 25.6722 131.56 25.6722C130.593 25.6722 129.812 25.4606 129.217 25.0374ZM149.724 29.4994V9.29934H144.351V29.4994H149.724ZM144.834 2.09305C144.289 2.60334 144.016 3.25054 144.016 4.03464C144.016 4.81875 144.289 5.46594 144.834 5.97623C145.38 6.48652 146.111 6.74167 147.028 6.74167C147.933 6.74167 148.658 6.48652 149.203 5.97623C149.761 5.46594 150.04 4.81875 150.04 4.03464C150.04 3.25054 149.761 2.60334 149.203 2.09305C148.658 1.58276 147.933 1.32761 147.028 1.32761C146.111 1.32761 145.38 1.58276 144.834 2.09305ZM159.503 29.4994V16.1757C159.679 15.7812 159.908 15.4369 160.191 15.1428C160.563 14.7694 161.021 14.4894 161.567 14.3027C162.125 14.1035 162.781 14.004 163.538 14.004C163.835 14.004 164.163 14.0226 164.523 14.06C164.895 14.0849 165.211 14.116 165.471 14.1533L165.564 9.16866C165.366 9.09398 165.112 9.03797 164.802 9.00063C164.492 8.95085 164.188 8.92596 163.891 8.92596C162.949 8.92596 162.112 9.14999 161.381 9.59805C160.65 10.0461 160.03 10.6809 159.522 11.5023C159.468 11.5914 159.416 11.6821 159.365 11.7745L159.187 9.29934H154.149V29.4994H159.503ZM172.778 29.126C174.017 29.6238 175.418 29.8727 176.979 29.8727C178.281 29.8727 179.44 29.6985 180.456 29.35C181.472 28.9891 182.34 28.5286 183.059 27.9685C183.79 27.4084 184.367 26.8234 184.788 26.2136L182.185 23.3759C181.578 24.1475 180.853 24.7263 180.01 25.1121C179.179 25.4855 178.281 25.6722 177.314 25.6722C176.533 25.6722 175.833 25.5353 175.213 25.2615C174.606 24.9876 174.085 24.6018 173.651 24.104C173.23 23.6061 172.902 23.0149 172.666 22.3304C172.535 21.9287 172.443 21.5055 172.389 21.0609H185.234V18.8206C185.234 17.3395 185.042 15.9953 184.658 14.7881C184.274 13.5684 183.703 12.5229 182.947 11.6517C182.204 10.7804 181.28 10.1083 180.177 9.63539C179.074 9.16243 177.81 8.92596 176.384 8.92596C174.922 8.92596 173.608 9.1811 172.443 9.69139C171.278 10.1892 170.286 10.9049 169.468 11.8383C168.663 12.7718 168.043 13.8733 167.609 15.1428C167.175 16.4123 166.958 17.8125 166.958 19.3433V20.0901C166.958 21.4343 167.188 22.7038 167.646 23.8986C168.105 25.081 168.762 26.1202 169.617 27.0164C170.485 27.9125 171.538 28.6157 172.778 29.126ZM172.454 17.4764C172.482 17.2722 172.516 17.0731 172.555 16.879C172.716 16.1198 172.951 15.4602 173.261 14.9001C173.583 14.34 173.999 13.9044 174.507 13.5932C175.015 13.2821 175.622 13.1265 176.329 13.1265C177.159 13.1265 177.841 13.3008 178.374 13.6493C178.907 13.9977 179.303 14.4707 179.564 15.0681C179.836 15.6531 179.973 16.3189 179.973 17.0657V17.4764H172.454ZM51.801 66.3336H48.3615V48.7846H45.1823V46.1336H48.3615V44.0053C48.3615 42.5491 48.6218 41.3232 49.1424 40.3275C49.6753 39.3193 50.4376 38.5601 51.4292 38.0498C52.4207 37.5271 53.5982 37.2657 54.9616 37.2657C55.3582 37.2657 55.7549 37.2906 56.1515 37.3404C56.5605 37.3902 56.9571 37.4649 57.3414 37.5644L57.1554 40.3835C56.8951 40.3212 56.5977 40.2777 56.263 40.2528C55.9408 40.2279 55.6185 40.2155 55.2963 40.2155C54.565 40.2155 53.9329 40.3648 53.3999 40.6635C52.8793 40.9498 52.4827 41.3729 52.21 41.933C51.9373 42.4931 51.801 43.1838 51.801 44.0053V46.1336H56.0771V48.7846H51.801V66.3336ZM21.5894 57.6898H18.0198C17.8214 58.9593 17.4868 60.0483 17.0158 60.9569C16.5572 61.8654 15.8755 62.5624 14.9707 63.0478C14.0659 63.5332 12.8513 63.7759 11.3267 63.7759C10.1245 63.7759 9.08332 63.527 8.20331 63.0291C7.3233 62.5189 6.59822 61.8219 6.02807 60.9382C5.45792 60.0545 5.03031 59.0277 4.74524 57.8578C4.47256 56.6879 4.33622 55.437 4.33622 54.1053V51.3609C4.33622 49.9172 4.49115 48.6041 4.80102 47.4217C5.11088 46.2394 5.56948 45.225 6.17681 44.3787C6.79653 43.5323 7.55879 42.8789 8.46359 42.4184C9.38079 41.9579 10.4405 41.7276 11.6428 41.7276C13.0434 41.7276 14.1775 41.9766 15.0451 42.4744C15.9127 42.9723 16.582 43.6817 17.053 44.6027C17.524 45.5113 17.8462 46.6003 18.0198 47.8698H21.5894C21.4035 46.0776 20.9139 44.5031 20.1206 43.1465C19.3398 41.7774 18.2429 40.7071 16.8299 39.9354C15.4169 39.1638 13.6879 38.7779 11.6428 38.7779C9.96953 38.7779 8.46359 39.0766 7.12499 39.674C5.78638 40.2715 4.63989 41.124 3.68551 42.2317C2.74353 43.3394 2.01845 44.6712 1.51027 46.2269C1.01449 47.7702 0.766602 49.494 0.766602 51.3983V54.1053C0.766602 56.0095 1.01449 57.7396 1.51027 59.2953C2.01845 60.8386 2.73733 62.1641 3.66692 63.2718C4.59651 64.3671 5.70581 65.2134 6.99484 65.8109C8.29627 66.4083 9.74023 66.707 11.3267 66.707C13.4958 66.707 15.3054 66.3149 16.7555 65.5308C18.2057 64.7343 19.3274 63.6577 20.1206 62.3011C20.9139 60.9444 21.4035 59.4073 21.5894 57.6898ZM37.8976 64.1985C37.7338 64.3708 37.5592 64.5411 37.3738 64.7094C36.7417 65.2819 35.9856 65.7611 35.1056 66.1469C34.238 66.5203 33.2588 66.707 32.1681 66.707C30.8047 66.707 29.6086 66.4394 28.5799 65.9042C27.5635 65.369 26.7703 64.6534 26.2001 63.7572C25.6424 62.8487 25.3635 61.8343 25.3635 60.7142C25.3635 59.6314 25.5742 58.6792 25.9956 57.8578C26.417 57.0239 27.0244 56.3331 27.8176 55.7855C28.6109 55.2254 29.5653 54.8023 30.6808 54.516C31.7963 54.2298 33.0419 54.0866 34.4177 54.0866H37.82V52.4811C37.82 51.6845 37.6589 50.9938 37.3366 50.4088C37.0267 49.8114 36.5558 49.3509 35.9236 49.0273C35.2915 48.7037 34.5107 48.5419 33.5811 48.5419C32.7135 48.5419 31.9512 48.6912 31.2943 48.9899C30.6498 49.2887 30.1416 49.6807 29.7698 50.1661C29.4103 50.6515 29.2306 51.1742 29.2306 51.7343H25.7911C25.7911 51.0124 25.977 50.2968 26.3489 49.5874C26.7207 48.8779 27.2537 48.237 27.9478 47.6644C28.6543 47.0795 29.4971 46.619 30.4762 46.2829C31.4678 45.9344 32.5709 45.7602 33.7856 45.7602C35.2481 45.7602 36.5372 46.0091 37.6527 46.507C38.7806 47.0048 39.6606 47.7578 40.2927 48.7659C40.9372 49.7616 41.2595 51.0124 41.2595 52.5184V61.9277C41.2595 62.5998 41.3152 63.3154 41.4268 64.0746C41.5507 64.8338 41.7305 65.4873 41.966 66.0349V66.3336H38.3777C38.2042 65.9353 38.0679 65.4064 37.9687 64.7467C37.9412 64.5601 37.9175 64.3774 37.8976 64.1985ZM37.82 60.6543C37.702 60.8895 37.5533 61.1273 37.3738 61.3676C36.9028 62.0148 36.2645 62.5624 35.4588 63.0105C34.6532 63.4585 33.7236 63.6826 32.6701 63.6826C31.8272 63.6826 31.1146 63.5332 30.532 63.2345C29.9619 62.9234 29.5343 62.5064 29.2492 61.9837C28.9641 61.4609 28.8216 60.8822 28.8216 60.2474C28.8216 59.6251 28.9579 59.0837 29.2306 58.6232C29.5033 58.1503 29.8999 57.7582 30.4205 57.4471C30.941 57.1359 31.5856 56.9057 32.354 56.7563C33.1225 56.5945 33.9963 56.5136 34.9755 56.5136H37.82V60.6543ZM63.9972 65.9975C65.1375 66.4705 66.4079 66.707 67.8085 66.707C69.1347 66.707 70.2812 66.5203 71.248 66.1469C72.2272 65.7735 73.0514 65.2881 73.7207 64.6907C74.39 64.0933 74.9416 63.4648 75.3754 62.8051L73.2931 61.1436C72.661 61.9775 71.9235 62.6433 71.0807 63.1412C70.2378 63.639 69.2091 63.8879 67.9944 63.8879C67.0525 63.8879 66.2096 63.7075 65.466 63.3465C64.7347 62.9856 64.1088 62.4877 63.5882 61.853C63.08 61.2182 62.6896 60.4839 62.4169 59.65C62.1804 58.8811 62.0514 58.0658 62.0297 57.2044H75.6357V55.6548C75.6357 54.236 75.4745 52.9291 75.1523 51.7343C74.83 50.527 74.3342 49.4816 73.6649 48.5979C72.9956 47.7018 72.1342 47.0048 71.0807 46.507C70.0395 46.0091 68.8001 45.7602 67.3623 45.7602C66.2344 45.7602 65.1437 45.9904 64.0902 46.4509C63.0366 46.9114 62.0946 47.5898 61.2642 48.4859C60.4338 49.382 59.7769 50.4773 59.2935 51.7717C58.8101 53.0536 58.5684 54.516 58.5684 56.1589V56.943C58.5684 58.3619 58.7853 59.6687 59.2191 60.8635C59.6529 62.0584 60.2727 63.0914 61.0783 63.9626C61.8963 64.8338 62.8693 65.5121 63.9972 65.9975ZM62.1304 54.3853C62.1954 53.8664 62.2909 53.381 62.4169 52.9291C62.6772 51.9957 63.0428 51.2054 63.5138 50.5582C63.9848 49.911 64.5488 49.4256 65.2057 49.102C65.8626 48.7659 66.5815 48.5979 67.3623 48.5979C68.5398 48.5979 69.4694 48.8717 70.1511 49.4193C70.8328 49.967 71.3286 50.6639 71.6384 51.5103C71.9607 52.3566 72.1466 53.2278 72.1962 54.124V54.3853H62.1304Z" fill="#131316"/>
</svg>
